# xmcd
#
# Track frame offsets:
# 150
# 2932
# 19199
# 42473
# 66177
# 88431
# 110574
# 134713
# 161023
# 188333
# 210551
# 230583
# 256633
#
# Disc length: 3468 seconds
#
#
# Revision: 0
# Processed by: cddbd v1.5.2PL0 Copyright (c) Steve Scherf et al.
# Submitted via: FreeRIP 2.951 
#
DISCID=b50d8a0d
DTITLE=Liz Carlisle - Live on Folkstage
DYEAR=2006
DGENRE=Country
TTITLE0=Announcer
TTITLE1=Upstream
TTITLE2=Thief in the Night
TTITLE3=9/8 Central
TTITLE4=Love Ain't Enough
TTITLE5=The One You Talk To
TTITLE6=Rest for a While
TTITLE7=Montana
TTITLE8=Feels Like Home
TTITLE9=Atlas
TTITLE10=Love I'm Leaving
TTITLE11=The Water is Wide
TTITLE12=Love I'm Leaving
EXTD=Liz Carlisle and Russell Wolff\nLive on Folkstage\nChicago, IL\n2006-11-18
EXTT0=
EXTT1=
EXTT2=
EXTT3=
EXTT4=
EXTT5=
EXTT6=
EXTT7=
EXTT8=
EXTT9=
EXTT10=
EXTT11=
EXTT12=
PLAYORDER=
